<?xml version="1.0" encoding="utf-8"?>
<!-- Generator: Adobe Illustrator 15.1.0, SVG Export Plug-In . SVG Version: 6.00 Build 0)  -->
<!DOCTYPE svg PUBLIC "-//W3C//DTD SVG 1.1//EN" "http://www.w3.org/Graphics/SVG/1.1/DTD/svg11.dtd">
<svg version="1.1" id="Layer_1" xmlns="http://www.w3.org/2000/svg" xmlns:xlink="http://www.w3.org/1999/xlink" x="0px" y="0px"
	 width="271.173px" height="73px" viewBox="81.969 214.126 271.173 73" enable-background="new 81.969 214.126 271.173 73"
	 xml:space="preserve">
<g>
	<g>
		<defs>
			<rect id="SVGID_1_" x="81.969" y="214.126" width="72.698" height="73"/>
		</defs>
		<clipPath id="SVGID_2_">
			<use xlink:href="#SVGID_1_"  overflow="visible"/>
		</clipPath>
		<g clip-path="url(#SVGID_2_)">
			<path fill="#B58C67" d="M118.276,214.126c-3.542,29.901-6.411,32.767-36.307,36.308c0.063,0.004,0.125,0.016,0.188,0.021
				c29.724,3.532,32.588,6.448,36.12,36.282c3.537-29.896,6.406-32.766,36.302-36.303
				C124.682,246.893,121.813,244.027,118.276,214.126z"/>
		</g>
	</g>
</g>
<g>
	<g>
		<g transform="translate(131.708931, 192.397005)">
			<g>
				<path fill="#1A1B1D" d="M48.007,37.225c0-1.345-0.021-2.521-0.063-3.521c-0.03-1.012-0.078-1.887-0.146-2.625
					c-0.058-0.734-0.135-1.345-0.229-1.834c-0.082-0.5-0.166-0.916-0.25-1.25v-0.104c0.303,0.016,0.636,0.021,1,0.021
					c0.293,0.016,0.625,0.021,1,0.021s0.761,0,1.168,0c0.567,0,1.338-0.052,2.313-0.167c0.969-0.109,2.229-0.167,3.771-0.167
					c1.427,0,2.75,0.188,3.957,0.563c1.209,0.375,2.25,0.916,3.125,1.625c0.887,0.697,1.584,1.558,2.084,2.582
					c0.5,1.017,0.75,2.178,0.75,3.479c0,1.099-0.156,2.083-0.459,2.958c-0.291,0.865-0.719,1.615-1.271,2.25
					c-0.542,0.641-1.203,1.182-1.979,1.625c-0.766,0.432-1.613,0.771-2.541,1.021c1.358,0.207,2.594,0.557,3.707,1.041
					c1.109,0.49,2.063,1.1,2.854,1.834c0.802,0.724,1.422,1.578,1.854,2.563c0.442,0.975,0.666,2.057,0.666,3.25
					c0,3.35-1.104,5.863-3.313,7.542c-2.208,1.666-5.511,2.5-9.896,2.5c-0.489,0-1.051-0.021-1.688-0.063
					c-0.625-0.031-1.271-0.072-1.938-0.125c-0.656-0.041-1.303-0.084-1.938-0.125c-0.642-0.041-1.198-0.063-1.667-0.063H47.32
					v-0.104c0.082-0.334,0.166-0.74,0.25-1.23c0.094-0.484,0.172-1.094,0.229-1.832c0.068-0.734,0.115-1.605,0.146-2.605
					c0.041-1.01,0.063-2.191,0.063-3.541L48.007,37.225L48.007,37.225z M56.736,45.162c-1.073,0-1.975,0.043-2.709,0.125
					c-0.738,0.084-1.301,0.162-1.688,0.229v7.229c0,1.864,0.025,3.396,0.083,4.604c0.067,1.199,0.156,2.178,0.271,2.938
					c0.595,0.084,1.192,0.162,1.793,0.23c0.608,0.057,1.104,0.082,1.479,0.082c2.958,0,5.125-0.656,6.5-1.979
					c1.375-1.334,2.063-3.375,2.063-6.125c0-1.068-0.166-2.053-0.5-2.959c-0.322-0.9-0.801-1.672-1.438-2.313
					c-0.641-0.65-1.453-1.156-2.438-1.521C59.179,45.345,58.039,45.162,56.736,45.162z M52.34,43.371
					c0.443,0.058,0.839,0.094,1.188,0.104c0.345,0,0.72,0,1.125,0c1.084,0,2.068-0.151,2.959-0.458
					c0.885-0.318,1.646-0.781,2.271-1.396c0.625-0.625,1.108-1.4,1.458-2.332c0.344-0.928,0.521-2.011,0.521-3.25
					c0-1.026-0.125-1.959-0.375-2.793c-0.25-0.844-0.625-1.567-1.125-2.166c-0.5-0.595-1.121-1.053-1.854-1.375
					c-0.739-0.318-1.573-0.479-2.5-0.479c-0.614,0-1.146,0.03-1.604,0.083c-0.447,0.042-0.827,0.1-1.146,0.167
					c-0.364,0.058-0.667,0.136-0.917,0.229V43.371z"/>
			</g>
		</g>
	</g>
	<g>
		<g transform="translate(154.101149, 192.397005)">
			<g>
				<path fill="#1A1B1D" d="M55.18,46.975c0-1.345-0.021-2.521-0.063-3.521c-0.043-1.012-0.095-1.887-0.146-2.625
					c-0.057-0.734-0.125-1.345-0.208-1.834c-0.083-0.483-0.177-0.896-0.271-1.229v-0.104h5.5v0.104
					c-0.1,0.333-0.188,0.745-0.271,1.229c-0.073,0.49-0.141,1.1-0.208,1.834c-0.058,0.738-0.104,1.613-0.146,2.625
					c-0.031,1-0.043,2.176-0.043,3.521v5.771c0,1.35,0.01,2.531,0.043,3.541c0.041,1,0.088,1.871,0.146,2.605
					c0.067,0.738,0.135,1.348,0.208,1.832c0.083,0.49,0.172,0.896,0.271,1.23v0.104h-5.5v-0.104c0.094-0.334,0.188-0.74,0.271-1.23
					c0.083-0.484,0.151-1.094,0.208-1.832c0.052-0.734,0.104-1.605,0.146-2.605c0.041-1.01,0.063-2.191,0.063-3.541V46.975z
					 M54.68,30.455c0-0.359,0.063-0.693,0.188-1c0.135-0.303,0.318-0.568,0.543-0.793c0.219-0.233,0.483-0.422,0.791-0.563
					c0.317-0.135,0.656-0.208,1.021-0.208c0.375,0,0.714,0.073,1.021,0.208c0.301,0.141,0.567,0.328,0.791,0.563
					c0.234,0.225,0.422,0.49,0.563,0.793c0.136,0.307,0.208,0.641,0.208,1c0,0.724-0.25,1.332-0.75,1.832
					c-0.49,0.49-1.1,0.729-1.833,0.729c-0.364,0-0.703-0.063-1.021-0.188c-0.309-0.136-0.574-0.322-0.793-0.563
					c-0.224-0.234-0.406-0.505-0.541-0.813C54.743,31.152,54.68,30.818,54.68,30.455z"/>
			</g>
		</g>
	</g>
	<g>
		<g transform="translate(164.792299, 192.397005)">
			<g>
				<path fill="#1A1B1D" d="M69.368,42.455l-0.333,0.041c-0.114-0.358-0.292-0.75-0.542-1.166c-0.24-0.418-0.557-0.797-0.958-1.146
					c-0.391-0.344-0.854-0.63-1.396-0.854c-0.543-0.234-1.178-0.354-1.896-0.354c-0.49,0-0.953,0.073-1.396,0.208
					c-0.432,0.141-0.813,0.354-1.146,0.646c-0.323,0.28-0.578,0.625-0.771,1.041c-0.198,0.406-0.293,0.885-0.293,1.438
					c0,0.78,0.24,1.521,0.729,2.229c0.483,0.707,1.088,1.412,1.813,2.104c0.733,0.682,1.525,1.375,2.375,2.083
					c0.858,0.698,1.65,1.427,2.375,2.188c0.733,0.766,1.344,1.578,1.832,2.438c0.484,0.865,0.729,1.792,0.729,2.792
					c0,0.821-0.146,1.619-0.438,2.396c-0.28,0.766-0.719,1.453-1.313,2.063c-0.6,0.6-1.365,1.084-2.292,1.459
					c-0.933,0.359-2.042,0.541-3.333,0.541c-0.766,0-1.475-0.072-2.125-0.207c-0.656-0.141-1.26-0.313-1.813-0.521
					c-0.543-0.219-1.037-0.463-1.479-0.729c-0.433-0.262-0.813-0.512-1.146-0.75l0.229-4.521h0.375
					c0.167,0.74,0.406,1.416,0.729,2.041c0.317,0.625,0.709,1.162,1.168,1.605c0.469,0.432,1.004,0.77,1.604,1.02
					c0.609,0.24,1.275,0.355,2,0.355c1.167,0,2.094-0.324,2.792-0.98c0.692-0.649,1.042-1.5,1.042-2.541
					c0-0.844-0.24-1.625-0.708-2.332c-0.474-0.709-1.073-1.381-1.792-2.021c-0.708-0.65-1.475-1.302-2.292-1.958
					c-0.823-0.651-1.583-1.344-2.292-2.083c-0.708-0.75-1.302-1.563-1.771-2.438c-0.474-0.875-0.707-1.881-0.707-3.021
					c0-0.917,0.166-1.755,0.5-2.521c0.344-0.775,0.822-1.438,1.438-1.979c0.609-0.552,1.338-0.979,2.188-1.271
					c0.845-0.302,1.771-0.457,2.771-0.457c1.303,0,2.396,0.141,3.271,0.416c0.886,0.281,1.567,0.543,2.041,0.793L69.368,42.455z"/>
			</g>
		</g>
	</g>
	<g>
		<g transform="translate(179.610086, 192.397005)">
			<g>
				<path fill="#1A1B1D" d="M72.161,60.662c0.469,0,0.942-0.088,1.416-0.27c0.47-0.178,0.923-0.418,1.354-0.709
					c0.442-0.303,0.864-0.65,1.271-1.041c0.401-0.387,0.776-0.797,1.125-1.23l0.25,0.125l-1.563,3.834
					c-0.184,0.101-0.411,0.219-0.688,0.354c-0.281,0.125-0.614,0.246-1,0.354c-0.392,0.125-0.85,0.229-1.375,0.313
					c-0.531,0.094-1.146,0.146-1.854,0.146c-2.14,0-3.802-0.572-4.979-1.729c-1.182-1.149-1.771-2.947-1.771-5.396V39.517l-4,0.146
					v-2.104c0.483,0.042,1.067,0.073,1.75,0.083c0.692,0.016,1.442,0.021,2.25,0.021c-0.017-1.125-0.042-2.115-0.083-2.979
					c-0.042-0.875-0.094-1.63-0.146-2.271c-0.057-0.636-0.125-1.178-0.207-1.625c-0.073-0.459-0.146-0.834-0.229-1.125v-0.104h5.5
					v0.104c-0.099,0.291-0.188,0.666-0.271,1.125c-0.073,0.447-0.137,0.989-0.188,1.625c-0.058,0.625-0.104,1.375-0.146,2.25
					c-0.043,0.864-0.073,1.864-0.084,3c1-0.011,1.979-0.031,2.938-0.063c0.958-0.026,1.833-0.052,2.625-0.083
					c0.791-0.042,1.458-0.083,2-0.125c0.541-0.042,0.899-0.073,1.083-0.104l-0.438,2.416c-0.809-0.011-1.656-0.031-2.543-0.063
					c-0.766-0.025-1.641-0.047-2.625-0.063c-0.988-0.026-2-0.047-3.041-0.063v16.396c0,0.99,0.104,1.787,0.313,2.396
					c0.219,0.615,0.5,1.094,0.833,1.438c0.345,0.351,0.733,0.594,1.167,0.729C71.249,60.599,71.702,60.662,72.161,60.662z"/>
			</g>
		</g>
	</g>
	<g>
		<g transform="translate(195.51759, 192.397005)">
			<g>
				<path fill="#1A1B1D" d="M68.84,46.975c0-1.345-0.021-2.521-0.063-3.521c-0.043-1.012-0.094-1.887-0.146-2.625
					c-0.057-0.734-0.125-1.345-0.209-1.834c-0.082-0.483-0.176-0.896-0.27-1.229v-0.104h5.5v0.104
					c-0.125,0.363-0.24,0.807-0.334,1.333c-0.084,0.517-0.146,1.188-0.188,2.021c0.584-0.5,1.193-0.983,1.834-1.457
					c0.636-0.47,1.291-0.886,1.957-1.25c0.668-0.375,1.34-0.672,2.021-0.896c0.693-0.219,1.396-0.333,2.104-0.333
					c0.418,0,0.781,0.021,1.104,0.063c0.316,0.041,0.604,0.099,0.854,0.166c0.261,0.073,0.5,0.156,0.709,0.25
					c0.207,0.084,0.4,0.162,0.582,0.229l-1.166,4.563l-0.396-0.104c-0.197-0.692-0.558-1.25-1.082-1.667
					c-0.517-0.428-1.23-0.646-2.146-0.646c-0.49,0-1,0.094-1.541,0.271c-0.543,0.182-1.094,0.427-1.646,0.729
					c-0.557,0.309-1.114,0.662-1.666,1.063c-0.559,0.405-1.1,0.828-1.625,1.271c-0.03,0.475-0.043,0.979-0.043,1.521
					c0,0.531,0,1.1,0,1.708v6.146c0,1.35,0.013,2.531,0.043,3.541c0.041,1,0.089,1.871,0.146,2.605
					c0.068,0.738,0.138,1.348,0.209,1.832c0.084,0.49,0.173,0.896,0.271,1.23v0.104h-5.5v-0.104c0.095-0.334,0.188-0.74,0.271-1.23
					c0.084-0.484,0.152-1.094,0.209-1.832c0.054-0.734,0.104-1.605,0.146-2.605c0.041-1.01,0.063-2.191,0.063-3.541L68.84,46.975
					L68.84,46.975z"/>
			</g>
		</g>
	</g>
	<g>
		<g transform="translate(211.728786, 192.397005)">
			<g>
				<path fill="#1A1B1D" d="M72.243,49.808c0-1.792,0.333-3.448,1-4.979c0.667-1.543,1.583-2.875,2.75-4s2.542-2.006,4.125-2.646
					c1.595-0.635,3.302-0.958,5.125-0.958c1.802,0,3.489,0.302,5.063,0.896c1.582,0.6,2.957,1.448,4.125,2.543
					c1.177,1.099,2.108,2.433,2.791,4c0.678,1.572,1.021,3.332,1.021,5.291c0,1.642-0.292,3.219-0.875,4.729
					c-0.572,1.5-1.41,2.834-2.521,4c-1.114,1.155-2.475,2.078-4.084,2.771c-1.613,0.691-3.469,1.041-5.563,1.041
					c-1.781,0-3.453-0.291-5.021-0.875c-1.572-0.594-2.947-1.442-4.125-2.541c-1.183-1.094-2.113-2.422-2.791-3.979
					C72.582,53.533,72.243,51.767,72.243,49.808z M85.743,60.746c1.136,0,2.177-0.219,3.125-0.666
					c0.942-0.442,1.755-1.084,2.438-1.918c0.677-0.844,1.207-1.875,1.582-3.082c0.387-1.209,0.584-2.574,0.584-4.104
					c0-1.708-0.188-3.297-0.563-4.771c-0.365-1.47-0.906-2.74-1.625-3.813c-0.725-1.067-1.636-1.901-2.729-2.5
					c-1.1-0.608-2.375-0.917-3.834-0.917c-1.125,0-2.161,0.225-3.104,0.667c-0.933,0.433-1.745,1.063-2.438,1.896
					c-0.684,0.823-1.219,1.828-1.604,3.021c-0.375,1.197-0.563,2.557-0.563,4.083c0,1.724,0.188,3.323,0.563,4.792
					c0.375,1.475,0.922,2.76,1.646,3.854c0.734,1.084,1.646,1.935,2.729,2.543C83.035,60.443,84.295,60.746,85.743,60.746z"/>
			</g>
		</g>
	</g>
	<g>
		<g transform="translate(235.58587, 192.397005)">
			<g>
				<path fill="#1A1B1D" d="M82.341,35.767c0-1.359-0.021-2.542-0.063-3.542c-0.041-1.011-0.094-1.88-0.146-2.604
					c-0.058-0.733-0.125-1.344-0.209-1.832c-0.083-0.5-0.177-0.918-0.271-1.25v-0.104h5.5v0.104c-0.1,0.332-0.188,0.75-0.271,1.25
					c-0.072,0.489-0.141,1.099-0.209,1.832c-0.057,0.725-0.104,1.594-0.146,2.604c-0.03,1-0.041,2.183-0.041,3.542v16.979
					c0,1.35,0.011,2.531,0.041,3.541c0.043,1,0.09,1.871,0.146,2.605c0.068,0.738,0.137,1.348,0.209,1.832
					c0.083,0.49,0.172,0.896,0.271,1.23v0.104h-5.5v-0.104c0.094-0.334,0.188-0.74,0.271-1.23c0.084-0.484,0.151-1.094,0.209-1.832
					c0.052-0.734,0.104-1.605,0.146-2.605c0.043-1.01,0.063-2.191,0.063-3.541V35.767z"/>
			</g>
		</g>
	</g>
	<g>
		<g transform="translate(246.27702, 192.397005)">
			<g>
				<path fill="#1A1B1D" d="M93.405,61.767L85.03,43.433c-0.307-0.708-0.635-1.38-0.979-2.021c-0.35-0.635-0.684-1.207-1-1.707
					c-0.309-0.512-0.578-0.943-0.813-1.293c-0.234-0.344-0.396-0.563-0.479-0.646v-0.104h6.25v0.104
					c-0.042,0.073-0.073,0.188-0.083,0.354c-0.016,0.155-0.021,0.291-0.021,0.416c0,0.5,0.073,1.053,0.229,1.646
					c0.151,0.6,0.427,1.344,0.833,2.229l6.584,14.293l6-14.105c0.26-0.594,0.521-1.239,0.771-1.938
					c0.26-0.692,0.396-1.401,0.396-2.125c0-0.209-0.017-0.375-0.041-0.5c-0.031-0.136-0.063-0.229-0.104-0.271v-0.104h4.293v0.104
					c-0.281,0.292-0.642,0.828-1.084,1.604c-0.433,0.767-0.896,1.729-1.396,2.896L93.03,69.33c-0.25,0.582-0.51,1.219-0.771,1.916
					c-0.267,0.709-0.396,1.416-0.396,2.125c0,0.209,0.01,0.375,0.041,0.5c0.025,0.135,0.063,0.234,0.104,0.291v0.105H87.55v-0.105
					c0.302-0.307,0.672-0.832,1.104-1.582c0.428-0.75,0.896-1.703,1.396-2.854L93.405,61.767z"/>
			</g>
		</g>
	</g>
	<g>
		<g transform="translate(131.708931, 213.264389)">
			<g>
				<path fill="#1A1B1D" d="M48.445,58.014c0.941,0,1.719,0.12,2.332,0.354c0.625,0.238,1.09,0.594,1.396,1.063
					c0.303,0.458,0.458,1.057,0.458,1.791c0,0.542-0.104,1.012-0.313,1.396c-0.197,0.375-0.457,0.688-0.791,0.938
					c-0.323,0.25-0.668,0.453-1.043,0.604l3.125,4.854H51.57l-2.646-4.396h-1.771v4.396H45.34v-11H48.445L48.445,58.014z
					 M48.32,59.534h-1.168v3.584h1.25c0.834,0,1.438-0.151,1.813-0.459c0.386-0.317,0.583-0.775,0.583-1.375
					c0-0.635-0.208-1.088-0.625-1.354C49.768,59.67,49.152,59.534,48.32,59.534z"/>
			</g>
		</g>
	</g>
	<g>
		<g transform="translate(142.226142, 213.264389)">
			<g>
				<path fill="#1A1B1D" d="M55.077,69.014h-6.229v-11h6.229v1.521h-4.418v3h4.146v1.5h-4.146v3.459h4.418V69.014z"/>
			</g>
		</g>
	</g>
	<g>
		<g transform="translate(151.814322, 213.264389)">
			<g>
				<path fill="#1A1B1D" d="M58.397,66.014c0,0.656-0.162,1.22-0.479,1.688c-0.323,0.474-0.781,0.832-1.375,1.082
					c-0.6,0.25-1.307,0.375-2.125,0.375c-0.406,0-0.786-0.021-1.146-0.063c-0.365-0.041-0.707-0.104-1.041-0.188
					c-0.324-0.094-0.615-0.209-0.875-0.334v-1.688c0.442,0.198,0.942,0.37,1.5,0.521c0.551,0.156,1.114,0.229,1.688,0.229
					c0.458,0,0.839-0.052,1.146-0.167c0.317-0.125,0.547-0.297,0.688-0.521c0.15-0.234,0.229-0.506,0.229-0.813
					c0-0.333-0.094-0.608-0.271-0.833c-0.167-0.219-0.433-0.422-0.792-0.604c-0.35-0.192-0.786-0.401-1.313-0.625
					c-0.365-0.137-0.709-0.297-1.043-0.479c-0.322-0.192-0.615-0.416-0.875-0.666c-0.25-0.25-0.453-0.542-0.604-0.875
					c-0.141-0.344-0.208-0.756-0.208-1.229c0-0.625,0.146-1.15,0.438-1.582c0.301-0.443,0.729-0.781,1.271-1.021
					c0.542-0.234,1.172-0.354,1.896-0.354c0.584,0,1.125,0.063,1.625,0.188c0.512,0.114,1.012,0.281,1.5,0.5l-0.563,1.458
					c-0.458-0.192-0.906-0.344-1.333-0.458c-0.417-0.109-0.845-0.167-1.271-0.167c-0.392,0-0.72,0.063-0.979,0.188
					c-0.267,0.113-0.47,0.271-0.604,0.479c-0.141,0.208-0.207,0.458-0.207,0.75c0,0.322,0.072,0.594,0.229,0.813
					c0.167,0.209,0.417,0.406,0.75,0.584c0.333,0.183,0.76,0.386,1.292,0.604c0.594,0.25,1.104,0.516,1.521,0.791
					c0.428,0.281,0.756,0.615,0.979,1C58.276,64.972,58.397,65.447,58.397,66.014z"/>
			</g>
		</g>
	</g>
	<g>
		<g transform="translate(161.306784, 213.264389)">
			<g>
				<path fill="#1A1B1D" d="M59.019,69.014h-1.813v-9.458h-3.208v-1.542h8.229v1.542h-3.207V69.014z"/>
			</g>
		</g>
	</g>
	<g>
		<g transform="translate(170.973791, 213.264389)">
			<g>
				<path fill="#1A1B1D" d="M65.241,69.014l-1.063-3.063H59.97l-1.082,3.063h-1.896l4.083-11.042h2l4.083,11.042H65.241z
					 M63.7,64.409l-1.042-3c-0.042-0.135-0.104-0.322-0.188-0.563c-0.072-0.233-0.141-0.479-0.207-0.729
					c-0.074-0.25-0.136-0.459-0.188-0.625c-0.058,0.209-0.12,0.438-0.188,0.688c-0.072,0.25-0.141,0.489-0.207,0.708
					c-0.074,0.225-0.121,0.396-0.146,0.521l-1.063,3H63.7z"/>
			</g>
		</g>
	</g>
	<g>
		<g transform="translate(181.750004, 213.264389)">
			<g>
				<path fill="#1A1B1D" d="M70.666,58.014v7.125c0,0.767-0.166,1.453-0.5,2.063c-0.322,0.599-0.807,1.078-1.458,1.438
					c-0.656,0.35-1.474,0.521-2.458,0.521c-1.406,0-2.475-0.364-3.208-1.104c-0.739-0.733-1.104-1.719-1.104-2.959v-7.083h1.813
					v6.938c0,0.918,0.213,1.6,0.646,2.043c0.428,0.432,1.067,0.646,1.918,0.646c0.594,0,1.082-0.104,1.457-0.313
					s0.646-0.51,0.813-0.916c0.177-0.4,0.271-0.896,0.271-1.479v-6.917L70.666,58.014L70.666,58.014z"/>
			</g>
		</g>
	</g>
	<g>
		<g transform="translate(193.466511, 213.264389)">
			<g>
				<path fill="#1A1B1D" d="M69.032,58.014c0.941,0,1.719,0.12,2.332,0.354c0.625,0.238,1.09,0.594,1.396,1.063
					c0.302,0.458,0.458,1.057,0.458,1.791c0,0.542-0.104,1.012-0.313,1.396c-0.197,0.375-0.457,0.688-0.791,0.938
					c-0.322,0.25-0.666,0.453-1.041,0.604l3.125,4.854h-2.043l-2.646-4.396h-1.771v4.396h-1.813v-11H69.032L69.032,58.014z
					 M68.907,59.534h-1.168v3.584h1.25c0.834,0,1.438-0.151,1.813-0.459c0.386-0.317,0.584-0.775,0.584-1.375
					c0-0.635-0.209-1.088-0.625-1.354C70.354,59.67,69.739,59.534,68.907,59.534z"/>
			</g>
		</g>
	</g>
	<g>
		<g transform="translate(203.983722, 213.264389)">
			<g>
				<path fill="#1A1B1D" d="M76.245,69.014l-1.063-3.063h-4.209l-1.084,3.063h-1.896l4.083-11.042h2l4.083,11.042H76.245z
					 M74.703,64.409l-1.042-3c-0.041-0.135-0.104-0.322-0.188-0.563c-0.072-0.233-0.141-0.479-0.209-0.729
					c-0.072-0.25-0.135-0.459-0.188-0.625c-0.058,0.209-0.119,0.438-0.188,0.688c-0.073,0.25-0.141,0.489-0.209,0.708
					c-0.072,0.225-0.119,0.396-0.146,0.521l-1.063,3H74.703z"/>
			</g>
		</g>
	</g>
	<g>
		<g transform="translate(214.759936, 213.264389)">
			<g>
				<path fill="#1A1B1D" d="M82.212,69.014h-2.229l-5.375-8.771h-0.083c0.025,0.291,0.047,0.604,0.063,0.938
					c0.012,0.333,0.026,0.678,0.043,1.021c0.01,0.349,0.024,0.703,0.041,1.063v5.75h-1.646v-11h2.208l5.375,8.729h0.063
					c-0.017-0.26-0.031-0.553-0.041-0.875c-0.017-0.334-0.031-0.672-0.043-1.021c-0.016-0.358-0.031-0.708-0.041-1.041v-5.792h1.666
					L82.212,69.014L82.212,69.014z"/>
			</g>
		</g>
	</g>
	<g>
		<g transform="translate(226.943773, 213.264389)">
			<g>
				<path fill="#1A1B1D" d="M80.898,69.014h-1.813v-9.458h-3.209v-1.542h8.229v1.542h-3.208L80.898,69.014L80.898,69.014z"/>
			</g>
		</g>
	</g>
</g>
</svg>
